<svg xmlns="http://www.w3.org/2000/svg" viewBox="0 0 1434.34 415.19"><defs><style>.cls-1{fill:#af915c;isolation:isolate;}.cls-2{fill:#124a2b;}</style></defs><g id="Layer_2" data-name="Layer 2"><g id="Layer_1-2" data-name="Layer 1"><path class="cls-1" d="M627.65,180.91a77.44,77.44,0,0,1,17,23.14c6.06,12.67,7.6,25.8,6.38,39.36-.53,5.94-3.3,11.66-4.2,17.61s-4.2,10.62-7.2,15.47c-5.15,8.34-11.39,15.72-19.59,21.26-4.32,2.92-8.47,6.27-13.15,8.45a196.77,196.77,0,0,1-21.12,8,146.75,146.75,0,0,1-15.55,3.92,35.51,35.51,0,0,1-7.15.56c-7.56.07-15.17.57-22.67-.13-7.18-.68-14.3-2.42-21.34-4.15a89.9,89.9,0,0,1-16.63-5.36c-10.26-4.79-19.92-10.72-27.48-19.4a195.49,195.49,0,0,1-13.07-16.13,41.1,41.1,0,0,1-5.14-11.31c-3.21-10.28-5.79-20.8-4.58-31.66a112.53,112.53,0,0,1,4-18.05,66,66,0,0,1,5.43-14.16,59.66,59.66,0,0,1,9.74-13.06,142.08,142.08,0,0,1,18.55-15.95c4.95-3.45,10.87-5.64,16.57-7.85,5.14-2,10.6-3.19,15.85-4.94,1.35-.46,2.44-1.71,3.94-2.8-3.61-1.32-6.83-2.27-9.86-3.64-5.1-2.31-10.43-4.36-15-7.47a67.8,67.8,0,0,1-12.52-11.36c-2.79-3.19-4.35-7.42-6.72-11-3.48-5.28-1.89-11.13-2.13-16.74-.32-7.63,3.14-14,8-19.43A103.35,103.35,0,0,1,501.3,71.54a45.27,45.27,0,0,1,11.19-5.94c6.13-2.46,12.45-4.48,18.73-6.56a13.73,13.73,0,0,1,4.25-.51c10.08-.06,20.19-.55,30.22.09a63.07,63.07,0,0,1,17.68,4.1,127.58,127.58,0,0,1,20.37,9.62C610,76,615.65,80.79,618.59,87.86c2.24,5.41,5.55,10.72,6.24,16.34.59,4.83-1.31,10.22-3.06,15-2.71,7.46-9,12.12-15.51,15.94-4.23,2.48-9.14,3.79-13.74,5.64a10.39,10.39,0,0,1-2.46,1,28.5,28.5,0,0,1-4-.11c.4-1.2.45-2.76,1.26-3.55,6-5.83,11.82-11.6,12.43-20.73.29-4.44,2.19-8.92,1.77-13.23A42.24,42.24,0,0,0,591,79.52a58.41,58.41,0,0,0-17.21-13.19,41,41,0,0,0-9.3-2.87c-3.46-.81-7.08-2.07-10.5-1.73-6.61.67-13.15,2.24-19.69,3.58-8,1.63-14.12,6.44-19.45,12.14a48.44,48.44,0,0,0-9.33,14.71c-2.59,6.24-2,12.36-2.13,18.56-.19,9.76,4.28,17.78,10.42,25a49.45,49.45,0,0,0,19.51,13.69c4.82,1.91,10.4,1.84,15.58,2.9,1.33.27,2.46,1.48,3.68,2.26-1.24.87-2.4,2.3-3.75,2.52-6.27,1-12.85.87-18.84,2.7s-11.68,5.6-17.51,8.45c-9.08,4.44-15.53,11.89-21.36,19.67a61.6,61.6,0,0,0-8.63,16.58,140.73,140.73,0,0,0-6.15,24.24c-.81,5.15.37,10.62.73,16,.12,1.66.64,3.3.69,5,.27,8.21,3.36,15.52,6.62,22.92a63.37,63.37,0,0,0,14.45,20.9c4.31,4.07,8.92,8.14,14.09,10.9a143.78,143.78,0,0,0,22,9.05c3.28,1.11,7.12.75,10.71.77,7,0,14,.3,20.86-.39a47.36,47.36,0,0,0,13.1-3.81,90.7,90.7,0,0,0,15.66-7.87c8.5-5.71,15.88-12.81,20.73-22a149.51,149.51,0,0,0,8.71-19.23,57.58,57.58,0,0,0,2.75-14.49,167.25,167.25,0,0,0,.14-16.91A63.08,63.08,0,0,0,621,202.65c-2.25-4.62-4.74-9.13-7.37-13.54a4.14,4.14,0,0,0-3.33-1.68c-7.2,1.16-14.36,2.54-21.51,4a144.27,144.27,0,0,0-14.15,3.24A159.59,159.59,0,0,0,557.05,201c-4.95,2.15-10,4.48-14.23,7.77-6.3,4.95-12.58,10.06-16.1,17.81-2.27,5-4.39,9.8-4.65,15.35,0,.74-1.63,1.93-2.53,1.95-.67,0-2.08-1.66-1.95-2.35,1.13-5.81,2.62-11.54,3.83-17.33,1.51-7.24,5.54-13.19,10.18-18.54A78.89,78.89,0,0,1,546.27,192c6.46-4.42,13.69-7.76,20.8-11.13,3.22-1.52,7-1.91,10.43-2.92,4.44-1.29,8.83-2.72,13.26-4,3.51-1,7-2,10.59-2.92,3.73-.93,7.58-1.45,11.23-2.61a81.64,81.64,0,0,0,12.31-4.87,141.56,141.56,0,0,0,15.47-9.07c4.3-2.95,7.54-7,8.39-12.42.62-3.91,1.1-7.84,1.82-11.72a22.71,22.71,0,0,1,1.6-4.16c1.18,1.2,3.32,2.37,3.37,3.62.3,7.66,1.55,15.69-.26,22.91-2.24,8.91-8.15,16.29-16.59,21.09C635,175.89,631.5,178.4,627.65,180.91Z"/><path class="cls-2" d="M820.26,344.86c2.09-.18,4.29,0,6.24-.62A77.57,77.57,0,0,0,837.12,340c.81-.39,1.35-2.11,1.35-3.23q.1-36,0-72c0-8.76-3.16-10.7-11.08-7.34a7,7,0,0,1-3.15.47c-.67,0-1.3-.67-2-1a17.37,17.37,0,0,1,1.86-1.26c5.66-2.83,11.34-5.6,17-8.44,3.81-1.91,7.44-4.31,11.42-5.73,3.45-1.22,5.3.27,5.2,4.51-.28,11.27-.1,22.56-.1,33.84v53.64c0,6.55,3.76,10.71,10.19,10.89q9.33.27,18.67,0c5.81-.17,8.36-2.95,8.36-8.7,0-28.45,0-56.89.08-85.33,0-3.29-.94-4.53-4.24-4.31s-6.48.07-9.72,0a7.82,7.82,0,0,1-2.23-.78c.4-.65.65-1.5,1.22-1.9a8.3,8.3,0,0,1,3.36-1.64,13.69,13.69,0,0,0,11.51-12.33c.58-7.22.88-14.55,2.51-21.56a46,46,0,0,1,14.76-24.86c5.05-4.33,10.55-9,16.67-11,6.64-2.15,13.65-5,21.59-1.71,4.26,1.76,8.76,3,12.73,5.57,7.82,5,13.17,19,4.58,27.17-4.38,4.19-13.85,3.79-16.14-1.51-1.45-3.33-1-8.13.18-11.78s3.42-7.13,1.6-11.21a9.77,9.77,0,0,0-2-3c-3.08-3-10.71-3.76-14.73-2.82-6.42,1.51-10.89,5.29-14.61,10.3-1.33,1.8-2.84,3.77-3.28,5.87A167,167,0,0,0,916,206.29a77.1,77.1,0,0,0,0,11.87c.4,7.8-.38,15.26-5,21.89-1.67,2.37-.87,3.33,2,3.32q13.86,0,27.71.2c1,0,2,.75,3,1.16-1,.41-1.94,1.15-2.92,1.17-6.72.11-13.44.22-20.16,0-3.54-.12-4.72.91-4.7,4.64.15,27.72.08,55.44.08,83.17,0,7.53,2.8,10.37,10.52,10.59,2.64.08,5.28-.05,7.91.13.71.05,1.37.88,2,1.35a9.51,9.51,0,0,1-2.06.94,12.34,12.34,0,0,1-2.51.06q-53.27,0-106.54,0c-1.67,0-3.34-.26-5-.39Z"/><path class="cls-2" d="M1222.84,243.41c3,.23,6,0,9,.2.71,0,1.38.88,2.07,1.35a6.25,6.25,0,0,1-2,.93c-2.76.14-5.52,0-8.28.17-5.29.3-7.25,4.94-4.67,9.7,2.5,4.6,4.33,9.56,6.41,14.38s4.24,9.69,6.15,14.62c1.31,3.35,1.87,7,3.44,10.23,3.71,7.55,2.76,15.66,1.61,23.15-1,6.58-2.06,13-1.68,19.65.12,2,1.3,4,2,6l1.55-.43c3.43-8.64,6.66-17.36,10.33-25.88,3.49-8.07,7.59-15.86,11.14-23.9,2.8-6.32,5-12.89,7.76-19.25s5.54-12.62,8.61-18.78c2.63-5.29.73-9.24-5-9.5-3.36-.15-6.74,0-10.11,0l-.17-1.57a10.71,10.71,0,0,1,2.92-.87c9.48-.07,19-.09,28.43,0,.93,0,1.84.9,2.76,1.38-.93.33-1.84.71-2.78,1-3,.9-6.32,1.35-9.06,2.82-1.64.89-2.75,3.21-3.55,5.13-2.64,6.36-4.85,12.9-7.57,19.23s-5.9,12.24-8.65,18.46c-1.92,4.31-3.31,8.86-5.16,13.2-2,4.76-4.4,9.36-6.44,14.1-2,4.58-3.66,9.27-5.55,13.88s-3.89,9-5.8,13.58-3.83,9.27-5.77,13.89c-2.16,5.11-4.4,10.2-6.52,15.33-1,2.44-1.6,5.08-2.76,7.44-3.84,7.82-7.32,15.89-12,23.21-3.55,5.59-9.06,9.31-16.43,8.95-5.47-.27-11,.88-16.18-2.34a16.18,16.18,0,0,1-7.2-10.1c-.71-2.58,0-5.5-.34-8.23-.48-4.21,2.59-6.09,5.43-6.95s6.57-.93,8.83.44c7,4.28,7.46,10.55,2,17.81-2.28,3.05-1,5.65,2.9,6.49,9.62,2.1,16-2.9,20.53-10.18,4-6.45,6.67-13.74,9.86-20.69,2.18-4.76,4.34-9.53,6.33-14.38,1.86-4.53,3.64-9.12,5.17-13.78,1.68-5.15-1.59-9.39-3.13-13.88-1.87-5.47-4.06-10.83-6.3-16.17-2-4.88-4.45-9.61-6.45-14.5-1.94-4.71-3.48-9.58-5.36-14.31s-4.1-9.48-6-14.27-3.35-10-5.68-14.66c-3-5.9-3.2-13.24-9-17.6a8,8,0,0,0-4.32-1.66c-10.67-.19-21.35-.14-32-.26-2.54,0-3.58.74-3.57,3.5.14,28,0,55.92.3,83.87.11,10.29,11.37,16.81,21.66,11.95,6.12-2.89,8.6-7.72,11.15-13,.05-.11.05-.26.12-.33,1.21-1.28,2.94-.55,2.57,1.08-1.27,5.65-4.29,10.11-9.5,12.72-3,1.52-6.26,3.13-9.55,3.54a76.28,76.28,0,0,1-14.73.14,24.65,24.65,0,0,1-15.57-6.45c-5-4.79-7.29-11.11-7.34-17.95-.14-22.32-.06-44.64-.06-67,0-12,0-12-11.91-12.06-1.81,0-3.62-.23-5.43-.36l-.1-1.22a18.08,18.08,0,0,1,3.38-.82c3.12-.12,6.25-.16,9.36,0,3.39.15,4.8-1.3,4.73-4.68-.11-5.28.06-10.56-.06-15.84-.06-2.33.9-3.33,3.11-3.34,4.8,0,9.6-.08,14.4,0,2.33.05,3.65,1.17,3.57,3.86-.16,5.28,0,10.56-.06,15.84,0,2.87,1.23,4.15,4.12,4.11,5.4-.08,10.82.2,16.2-.11"/><path class="cls-2" d="M241.7,78.77c-10.67-.19-21.35-.14-32-.26-2.55,0-3.58.75-3.57,3.5.14,28,0,55.92.3,83.88.11,10.29,11.37,16.8,21.66,11.94,6.12-2.89,8.6-7.72,11.14-13.05.06-.1,0-.25.13-.33l3.65-3.81c-.36,1.63-.71,3.27-1.08,4.9-1.28,5.65-4.29,10.1-9.5,12.71-3,1.53-6.26,3.13-9.55,3.55a75.49,75.49,0,0,1-14.73.13,24.69,24.69,0,0,1-15.58-6.44c-5-4.79-7.28-11.12-7.33-18-.14-22.32-.06-44.64-.06-66.95,0-12,0-12-11.91-12.07-1.81,0-3.62-.23-5.43-.35l-.1-1.22a16.64,16.64,0,0,1,3.38-.82c3.12-.12,6.24-.17,9.36,0,3.39.15,4.8-1.29,4.73-4.68-.11-5.27.06-10.56-.06-15.83-.06-2.33.9-3.34,3.11-3.34,4.8,0,9.6-.09,14.4,0,2.33.06,3.65,1.17,3.57,3.87-.17,5.27,0,10.55-.06,15.83,0,2.87,1.23,4.16,4.12,4.12,5.4-.08,10.82.19,16.2-.11a103.74,103.74,0,0,1,13.16.35"/><path class="cls-2" d="M105.05,25.92c0,6.12,0,12.24,0,18.36a7.32,7.32,0,0,1-1,2.42,9.35,9.35,0,0,1-1.29-2.11C98.48,29.61,91.84,16.19,78,7.8c-2.82-1.71-6.3-2.47-9.57-3.23-4.22-1-8.59-2.32-12.8-2.07-9.35.57-18.19,2.83-26.29,8.35-11.78,8-14.76,19.47-12.5,32.13,1.38,7.7,6.65,13.88,14,18.2,9.4,5.49,19.58,8.43,29.82,11.53,8.66,2.63,17.19,5.73,25.74,8.7C91.32,83.11,96.69,84.2,101,87a70,70,0,0,1,13.6,12.21,27,27,0,0,1,7.06,20.38c-.24,3.83,0,7.68-.06,11.52-.13,7.18-3.16,13.32-6.33,19.63-4.13,8.23-10.52,14.21-17.56,19.52-3.52,2.65-8.05,4-12.15,5.87-9.21,4.26-19,4.6-28.93,4.39-6.34-.14-12-2.26-17.89-4.14-11-3.52-19-10.73-25.9-19.44-2.64-3.37-4.27-7.57-6.11-11.51A82.58,82.58,0,0,1,3,135.65,16,16,0,0,1,2,129.71c.57-7.08,1.33-14.14,2.22-21.18.42-3.29-.87-5.56-3.13-7.72A4.05,4.05,0,0,1,0,97.62c.12-.65,1.68-1.46,2.61-1.47q15.82-.15,31.67,0c.94,0,1.86.88,2.79,1.36-.81.94-1.44,2.3-2.47,2.75-2.63,1.15-5.49,1.77-8.17,2.82a29.47,29.47,0,0,0-15.28,13c-3.79,6.5-5.42,13.46-3.81,20.48,1.66,7.24,4,14.45,9.06,20.47a60.39,60.39,0,0,0,22.9,16.64c8.79,3.83,17.7,4.88,27,4.3,11.85-.73,21.78-5.46,29.36-14.74,4-4.87,6.85-10.2,7.23-16.71.16-2.78,1.7-5.53,1.6-8.26-.41-11.61-5.47-20.94-14.76-27.92-6.9-5.19-15-7.39-23.17-9.77-6.31-1.84-12.44-4.28-18.68-6.36-3-1-6.13-1.68-9.15-2.66-9.35-3-18.06-7.31-25.07-14.31C7.89,71.47,4.41,64.39,4.2,56c-.08-3.36,0-6.72,0-10.08,0-5.84,2.4-10.91,4.28-16.32,2.89-8.29,8.36-14,14.78-19,3.72-2.9,8.46-4.68,13-6.31C41.42,2.38,46.86.12,52.24,0A106.68,106.68,0,0,1,75.55,2.54c4.61,1,8.91,3.66,13.23,5.83,3.4,1.72,9.44.6,12.13-2.4a3.56,3.56,0,0,1,2.74-1.15c.59.1,1.32,1.53,1.34,2.39C105.1,13.44,105.05,19.68,105.05,25.92Z"/><path class="cls-2" d="M765.66,175.37c-1.4.23-2.8.5-4.21.66q-8,1-16.08,1.85c-4,.44-5.19,2.87-5.19,6.63q.09,64.43,0,128.85c0,2.95-1.41,5.88-1.55,8.85a4.25,4.25,0,0,0,2.72,3.18c4.28.42,8.62.18,12.94.36,13.31.57,26.66,2,39.93,1.52,6.8-.24,14.6-.87,20-6.45,2.4-2.51,3.82-5.95,5.69-9,.39-.63.79-1.25,1.18-1.87.36.65,1.08,1.35,1,2-.5,4.39-1.33,8.75-1.71,13.15-.51,5.75-3.86,9.78-7.72,13.49a18.8,18.8,0,0,1-5.34,3.62,64.82,64.82,0,0,1-33.59,4.86A74.53,74.53,0,0,1,755,342.5c-6.09-2.37-11.6-6.22-17.5-9.13-1-.48-2.94.13-4,.9-4.14,2.89-6.92,6.63-11.94,8.88-6.09,2.73-14,4.34-20.16,1.6a19.58,19.58,0,0,1-8.79-5.56c-5.4-4.44-2.41-14.91,4.21-16.54,9.76-3.8,19-2.48,28.86.12a25.63,25.63,0,0,0,7.83.53c.74,0,1.92-1.63,2-2.58a37.23,37.23,0,0,0-4.32-21.82c-4-7.24-6.64-15.21-10.27-22.67-3.73-7.66-4.44-15.67-4.36-24,.19-21.71.06-43.43.06-65.14,0-7.31-3.45-10.84-10.84-11-4-.08-7.92,0-11.88-.09a9,9,0,0,1-2.71-1.1c.83-.43,1.66-1.22,2.49-1.23q34.54-.09,69.1,0a14.45,14.45,0,0,1,2.85.59C765.67,174.61,765.66,175,765.66,175.37ZM709.42,322.65a33.24,33.24,0,0,0-10.69,1.7c-4.72,1.55-7.12,6.25-5.66,10a16.18,16.18,0,0,0,7.63,7.79c3.57,1.45,8.82,3.72,15.69.83,5.45-2.15,9.36-5.28,13.73-8.69,1.94-1.51,2.13-4.46-.58-5.65C723.22,325.83,716.93,322.64,709.42,322.65Z"/><path class="cls-2" d="M1293.07,187.49c2.34-1.59,4.6-3.31,7-4.73,4.65-2.71,9.43-5.22,14.11-7.88,1.9-1.08,3.59-2.93,5.58-3.26,1.18-.21,3.32,1.57,4,3,.77,1.6.46,3.75.46,5.66q0,76.84,0,153.69,0,10,10,10.37c2,.08,4.08,0,6.11.17.52,0,1,.77,1.48,1.18a5.51,5.51,0,0,1-1.6,1,10.4,10.4,0,0,1-2.5.1q-23.22,0-46.43,0a40.6,40.6,0,0,1-4.38-.44l-.11-1.1c1.1-.3,2.19-.65,3.3-.87,3.67-.74,7.49-1,11-2.32,1.54-.57,2.65-2.95,3.42-4.74.53-1.22.17-2.84.17-4.28,0-43.43.07-86.86-.09-130.28,0-4.55-1.3-9.1-2.2-13.61-.13-.65-1.39-1.45-2.19-1.53-2.38-.23-4.78-.14-7.18-.17Z"/><path class="cls-2" d="M1392.5,286.07c-12.48,0-25,0-37.44,0a15,15,0,0,0-3.29.74,22.36,22.36,0,0,1,2,2c3.78,4.54,4.94,9.87,5.6,15.68.92,8.1,1.95,16.39,4.59,24a26.78,26.78,0,0,0,15.4,16.31c7.34,3.12,14.17,2.94,21.41,2.83,9.59-.13,23-12,26-21.24a30.78,30.78,0,0,1,2.46-5c.16-.3,1-.58,1.17-.45.45.44,1.12,1.19,1,1.6a42.28,42.28,0,0,1-2.91,8.18c-3.84,7-9.8,11.91-16.76,15.6a35.74,35.74,0,0,1-8,2.85c-2.28.79-18.74,2-28.31-1.33-5-1.74-10.34-3.14-14.85-5.83-4.31-2.57-8.06-6.32-11.48-10.07-4.34-4.76-9.5-10.93-10.75-17.6-.59-3.16-1.26-5.27-1.91-8.42a36.68,36.68,0,0,1-.82-9.91c.77-11.56,3.36-22.35,10.53-32.25a64.09,64.09,0,0,1,17.9-17.08,53.69,53.69,0,0,1,14.65-6,39.29,39.29,0,0,1,12.64-1.2c8.76.72,17,2.94,24.75,7.93,7.13,4.58,11.64,10.93,14.85,18,2.4,5.29,2.44,11.68,3.31,17.61.37,2.52-1.31,3.35-3.63,3.08H1392.5Zm-7-2.62c7.18,0,14.37-.09,21.56.05,2.68.05,3.57-.94,3.51-3.54-.16-6.83.2-13.69-.37-20.47-.26-3-2-6-3.55-8.7-2.52-4.32-6.77-5.87-11.37-7.8-8.72-3.64-15.7,0-21.78,4.24-8.3,5.73-10.65,15.53-12.16,25.15-.4,2.59.08,5.37-.6,7.86-.86,3.08.63,3.23,2.83,3.22Z"/><path class="cls-2" d="M947.86,286.51c8,5.7,9.58,13.1,10.27,21.05.55,6.45.44,13.32,2.73,19.17,3.09,7.86,7.65,15,16.82,18.31,7.75,2.79,15.56,2.56,22.89,1.31A32,32,0,0,0,1023.31,330c1.23-2.18,1.61-4.83,2.8-7,.56-1,2.11-1.53,4.06-2.83-2.35,11.34-8.75,18.41-16.51,23.68-4.91,3.33-10.77,6.18-17.45,5.64-4.4-.36-8.88.21-13.3,0A52.47,52.47,0,0,1,957.29,341a43.32,43.32,0,0,1-14.11-13.57c-2.74-4.35-4.52-9.31-6.6-14.06-4.26-9.75-2.53-20-1.72-30,.4-4.86,3.6-9.65,6.16-14.11,2.73-4.74,5.7-9.54,9.47-13.43a48.68,48.68,0,0,1,18.56-12.51c6.81-2.43,13.61-4.65,20.8-4,13.72,1.31,25.86,6,34.11,18,3.66,5.3,7,10.63,7.25,17.41.06,1.92,1.5,3.77,1.72,5.71.5,4.45-.65,5.58-5.16,5.59-13.19,0-26.39,0-39.58,0q-17.64,0-35.27,0C951.61,286.09,950.29,286.3,947.86,286.51Zm35.55-3.05c7,0,13.92-.1,20.87,0,3.28.07,5.16-1,4.87-4.49-.59-7.2-1.1-14.43-2-21.59-.36-2.76-1.11-6-2.85-7.94a23.52,23.52,0,0,0-14.93-7.7c-3.4-.4-7.21.77-10.53,2-3.8,1.45-8.33,3-10.68,5.92-7,8.86-10,19.42-10,30.8,0,2.56,1.24,2.95,3.33,2.93C968.78,283.42,976.1,283.45,983.41,283.46Z"/><path class="cls-2" d="M258.71,117.56c6.72,4.79,8.44,10.57,8.6,17.39.13,5.77.53,11.75,2.17,17.24,2.78,9.34,7,18.19,16.35,23,5.11,2.61,10.71,3,16.49,3,13.95,0,24-6.59,31.78-17.45,1.44-2,1.85-4.77,2.86-7.13a9.78,9.78,0,0,1,1.57-2c.4.79,1.29,1.72,1.11,2.35a36.51,36.51,0,0,1-2.7,7.53c-3.95,7.48-10.4,12.63-17.77,16.06-4.4,2.05-9.74,2.27-14.71,2.83a53.27,53.27,0,0,1-11.5,0c-8.76-.92-17.38-2.79-24.54-8.27a126.15,126.15,0,0,1-14.93-13.24,22.82,22.82,0,0,1-5.16-9.63c-2-7.74-4.26-15.63-4.63-23.55-.27-5.66,2.28-11.48,3.65-17.21,2-8.25,6.69-15.08,12.47-20.86,4.34-4.33,9.88-7.53,15.13-10.85,8.19-5.17,17.31-7.79,26.91-6.49,12,1.62,22.93,5.74,30.94,15.84,6.3,7.95,9.85,16.5,9.39,26.75-.14,3.16-.89,4.3-4.27,4.28-24.6-.14-49.2-.08-73.79-.05C262.7,117.1,261.26,117.33,258.71,117.56Zm35-2.91c7.18,0,14.37.06,21.56-.06,1.06,0,2.87-.72,3-1.41.83-3.55,2-7.29,1.6-10.79-.68-6-2.38-11.92-3.74-17.84-1.8-7.86-8.61-10.1-14.9-11.56-8.73-2-21.16,3.51-25.6,12.27-4.14,8.15-6.89,16.22-6.74,25.37.05,3,.62,4.23,3.95,4.1C279.8,114.46,286.76,114.65,293.71,114.65Z"/><path class="cls-2" d="M1103.32,269c-1.52-3-3.48-5.78-4.48-8.9-2.23-6.92-6.27-12.89-12.69-15.46-2.65-1.06-9.33-3-15.44-2.2-6.8.87-13,4.6-14.78,6.27-4.74,4.52-5.93,11.08-4.58,17.43,1.82,8.49,8.72,10.13,15,12.74,5.53,2.3,11.21,4.26,16.83,6.34A68.93,68.93,0,0,0,1091,288a36.06,36.06,0,0,1,23.61,17.82,6.9,6.9,0,0,1,.66,3.11c.1,3,0,6,.1,9,.46,11-5.74,18.16-13.68,24.66-10.2,8.37-22.13,7.69-33.81,6.47-6.59-.69-12.9-4-19.38-6-1-.29-2.16.27-3.24.45-2,.34-4.13,1.16-6,.79-.7-.13-1.18-3-1.21-4.66-.12-7.32-.1-14.65,0-22,0-1.12.83-2.22,1.28-3.33,1,1,2.43,1.75,3.06,2.94,2.84,5.29,4.91,11.07,8.25,16,8.16,12.06,20.43,14.76,34,13.35,7.19-.75,13.81-8.24,14-15.41.07-2.52.07-5,0-7.56a14.84,14.84,0,0,0-9.7-14.12c-9.25-3.36-18.6-6.45-27.85-9.81-7.71-2.81-15.06-7.18-18-14.73-2.47-6.28-4.86-13.3-1.43-20.93,1.67-3.71,2.54-7.9,5.16-11.2s8.83-8.36,16.32-11.08c6.34-2.3,14-2.4,16.18-2.31,4.06.16,8,2.36,12.07,3.25a32.16,32.16,0,0,0,9.11.79c3.75-.29,5.3.75,5.12,4.69-.25,5.39,0,10.8-.09,16.2a31.85,31.85,0,0,1-.55,4.09Z"/><path class="cls-2" d="M413.89,99.68c-1.52-3-3.48-5.78-4.48-8.9-2.23-6.92-6.27-12.9-12.69-15.46-2.65-1.06-9.33-3-15.44-2.2-6.8.87-13,4.6-14.78,6.27-4.74,4.52-5.93,11.08-4.58,17.42,1.82,8.5,8.72,10.14,15,12.75,5.53,2.29,11.21,4.25,16.83,6.34a71,71,0,0,0,7.76,2.76,36,36,0,0,1,23.61,17.82,6.9,6.9,0,0,1,.66,3.11c.1,3,0,6,.1,9,.46,11-5.74,18.16-13.68,24.66-10.2,8.37-22.13,7.69-33.81,6.47-6.59-.69-12.9-4-19.38-6-1-.29-2.16.27-3.24.45-2,.34-4.13,1.16-6,.79-.7-.13-1.18-3-1.21-4.66-.12-7.32-.1-14.65,0-22,0-1.11.84-2.21,1.28-3.32,1,1,2.43,1.75,3.07,2.93,2.83,5.3,4.9,11.08,8.24,16,8.16,12.05,20.43,14.76,34,13.35,7.19-.75,13.81-8.24,14-15.41.07-2.52.07-5,0-7.56a14.83,14.83,0,0,0-9.7-14.12c-9.25-3.36-18.6-6.45-27.85-9.81-7.71-2.81-15.06-7.18-18-14.73-2.47-6.29-4.86-13.3-1.43-20.93,1.67-3.71,2.54-7.9,5.16-11.2s8.83-8.36,16.32-11.08c6.34-2.3,14-2.4,16.19-2.32,4.05.17,8,2.37,12.06,3.26a32.16,32.16,0,0,0,9.11.79c3.75-.29,5.3.75,5.12,4.69-.25,5.39,0,10.8-.09,16.2a32.09,32.09,0,0,1-.55,4.09Z"/><path class="cls-2" d="M120.66,87.79c2.06-1.1,4.14-2.17,6.19-3.28,7.09-3.86,14-8,21.34-11.43,2-.93,4.59-4.38,7.26-.94a7.47,7.47,0,0,1,1.37,4.35q.12,42.83.06,85.66c0,9.94,2.7,12.68,12.89,13.24,1.86.1,3.7.51,5.55.78,0,.47,0,.94-.08,1.41a24.83,24.83,0,0,1-3.19.4q-24.66,0-49.31,0a12.33,12.33,0,0,1-3.19-.9,15.2,15.2,0,0,1,3.14-1.59c3.7-.87,7.83-.85,11-2.59,2-1.12,3.8-4.72,3.84-7.23.28-22.91.26-45.83.06-68.74,0-3.09-.63-7.14-2.6-8.93-1.61-1.45-5.69-.3-8.66-.08a47.15,47.15,0,0,0-5.46,1Z"/><path class="cls-2" d="M146.64,4.4c7.49,0,12.49,4.8,12.46,12,0,6.56-5,12.78-12.76,12.29-7.19-.46-12.82-5.47-12.8-12.3C133.56,9.77,139.46,4.39,146.64,4.4Z"/><path class="cls-2" d="M847.6,197.11c-8,1.16-12-5.34-12-11.88,0-7.26,5.72-12.63,12.16-12.19,7.07.49,12.12,5.26,12.13,12.43C859.85,193.6,856.14,197.12,847.6,197.11Z"/></g></g></svg>